<svg width="497" height="127" viewBox="0 0 497 127" fill="none" xmlns="http://www.w3.org/2000/svg">
<rect width="497" height="127" fill="#1E1E1E"/>
<g clip-path="url(#clip0_0_1)">
<rect width="497" height="127" fill="white"/>
<path d="M49.44 91.76L8.16 71.12V61.52L49.44 40.88V49.232L19.68 63.824C18.464 64.4 17.312 64.912 16.224 65.36C15.2 65.744 14.432 66 13.92 66.128C14.496 66.256 15.328 66.544 16.416 66.992C17.504 67.376 18.592 67.856 19.68 68.432L49.44 83.12V91.76ZM139.605 98V35.696H120.405V27.824H167.445V35.696H148.245V98H139.605ZM183.728 98V27.92H192.368V90.128H224.048V98H183.728Z" fill="black"/>
<rect x="247" y="117" width="60" height="10" rx="2" fill="#2BA0FF"/>
<path d="M387.763 108.56L421.843 18.32H430.963L396.883 108.56H387.763Z" fill="black"/>
<path d="M447.16 91.76V83.408L476.92 68.816C478.136 68.24 479.256 67.76 480.28 67.376C481.368 66.928 482.168 66.64 482.68 66.512C482.104 66.384 481.272 66.128 480.184 65.744C479.096 65.296 478.008 64.784 476.92 64.208L447.16 49.52V40.88L488.44 61.52V71.12L447.16 91.76Z" fill="black"/>
</g>
<defs>
<clipPath id="clip0_0_1">
<rect width="497" height="127" fill="white"/>
</clipPath>
</defs>
</svg>
