<svg width="500" height="500" viewBox="0 0 500 500" fill="none" xmlns="http://www.w3.org/2000/svg">
<rect width="500" height="500" fill="#1E1E1E"/>
<rect width="500" height="500" fill="white"/>
<path d="M51.44 278.76L10.16 258.12V248.52L51.44 227.88V236.232L21.68 250.824C20.464 251.4 19.312 251.912 18.224 252.36C17.2 252.744 16.432 253 15.92 253.128C16.496 253.256 17.328 253.544 18.416 253.992C19.504 254.376 20.592 254.856 21.68 255.432L51.44 270.12V278.76ZM141.605 285V222.696H122.405V214.824H169.445V222.696H150.245V285H141.605ZM185.728 285V214.92H194.368V277.128H226.048V285H185.728Z" fill="black"/>
<rect x="249" y="304" width="60" height="10" rx="2" fill="#2BA0FF"/>
<path d="M389.763 295.56L423.843 205.32H432.963L398.883 295.56H389.763Z" fill="black"/>
<path d="M449.16 278.76V270.408L478.92 255.816C480.136 255.24 481.256 254.76 482.28 254.376C483.368 253.928 484.168 253.64 484.68 253.512C484.104 253.384 483.272 253.128 482.184 252.744C481.096 252.296 480.008 251.784 478.92 251.208L449.16 236.52V227.88L490.44 248.52V258.12L449.16 278.76Z" fill="black"/>
</svg>
