<svg width="64" height="64" viewBox="0 0 64 64" fill="none" xmlns="http://www.w3.org/2000/svg">
<path d="M49.7481 8.98375L53.0753 11.0169C55.2415 26.6387 44.766 41.34 29.1095 44.266L23.2276 44.6332L19.1768 40.5824L19.2296 37.6449C19.7973 21.3333 33.4032 8.55453 49.7481 8.98375Z" stroke="#AFAFAF" stroke-width="2"/>
<path d="M37.33 33.16C40.9199 33.16 43.83 30.2499 43.83 26.66C43.83 23.0701 40.9199 20.16 37.33 20.16C33.7402 20.16 30.83 23.0701 30.83 26.66C30.83 30.2499 33.7402 33.16 37.33 33.16Z" stroke="#AFAFAF" stroke-width="2"/>
<path d="M20.8202 47.61V50.1598H13.8299V45.6598H12.2586C12.6253 43.8015 13.992 42.2955 15.7752 41.7321L20.8202 47.61Z" stroke="#AFAFAF" stroke-width="2"/>
<path d="M22.3485 20.69L16.8387 31.2261L8.11508 32.8677L11.953 20.69H22.3485Z" stroke="#AFAFAF" stroke-width="2"/>
<path d="M43.8304 51.3377L31.97 56.5662V47.4695L43.8304 41.6004V51.3377Z" stroke="#AFAFAF" stroke-width="2"/>
</svg>
