<svg width="64" height="64" viewBox="0 0 64 64" fill="none" xmlns="http://www.w3.org/2000/svg">
<path d="M50.04 7.99191C51.6436 8.04723 53.2407 8.22221 54.8184 8.51437C55.1576 8.57721 55.4234 8.84212 55.4863 9.18137C57.641 20.8168 53.2824 32.1507 44.9893 39.4294L44.7852 39.6091L44.8242 39.8777C44.83 39.9172 44.833 39.9581 44.833 39.9997V51.9997C44.833 52.3405 44.626 52.6476 44.3096 52.7741L30.9766 58.1071C30.4293 58.3261 29.8333 57.9231 29.833 57.3337V46.8581L29.2471 46.9607C27.7681 47.22 26.2724 47.3757 24.7715 47.4275L23.8574 47.4597L23.4609 47.4734L23.3838 47.863C22.827 50.6962 20.329 52.8337 17.333 52.8337H12C11.5398 52.8337 11.167 52.46 11.167 51.9997V46.6667C11.167 43.6706 13.3044 41.1726 16.1377 40.6159L16.5273 40.5398L16.541 40.1423L16.5723 39.2282C16.6248 37.7057 16.7813 36.2117 17.0352 34.7527L17.1377 34.1667H6.66699C6.07758 34.1667 5.67396 33.5714 5.89258 33.0241L11.2266 19.6902C11.3532 19.374 11.6594 19.1667 12 19.1667H24C24.0427 19.1667 24.0845 19.1695 24.125 19.1755L24.3955 19.2165L24.5752 19.0114C30.7589 11.9618 39.9387 7.64359 50.04 7.99191ZM42.377 41.4939C39.2731 43.6964 35.7379 45.3787 31.874 46.3884L31.5 46.4861V56.1023L32.1855 55.8279L42.8525 51.5612L43.167 51.4362V40.9343L42.377 41.4939ZM16.75 42.2038C14.5401 42.4902 12.833 44.3789 12.833 46.6667V51.1667H17.333C19.6208 51.1667 21.5096 49.4597 21.7959 47.2497L21.8271 47.0056L16.9941 42.1726L16.75 42.2038ZM49.9824 9.65793C33.0349 9.07353 18.8217 22.3383 18.2373 39.2859L18.1865 40.7829L18.1787 40.9997L18.332 41.154L22.8467 45.6677L23 45.821L23.2168 45.8142L24.7139 45.7624C26.235 45.71 27.7505 45.5444 29.2471 45.2673C45.6113 42.2369 56.5237 26.7502 54.0049 10.4138L53.9492 10.0515L53.5869 9.99582L52.6895 9.87082C51.791 9.7598 50.8878 9.68916 49.9824 9.65793ZM37.333 19.1667C41.4751 19.1667 44.833 22.5246 44.833 26.6667C44.833 30.8088 41.4751 34.1667 37.333 34.1667C33.191 34.1665 29.833 30.8087 29.833 26.6667C29.833 22.5247 33.191 19.1669 37.333 19.1667ZM12.4385 21.1472L8.17188 31.8142L7.89746 32.4997H17.5078L17.6055 32.1267C18.6065 28.297 20.2886 24.7517 22.5107 21.6228L23.0713 20.8337H12.5645L12.4385 21.1472ZM37.333 20.8337C34.1115 20.8339 31.5 23.4452 31.5 26.6667C31.5 29.8882 34.1115 32.4995 37.333 32.4997C40.5547 32.4997 43.167 29.8884 43.167 26.6667C43.167 23.4451 40.5547 20.8337 37.333 20.8337Z" fill="#AFAFAF" stroke="#AFAFAF"/>
</svg>
