<svg width="64" height="64" viewBox="0 0 64 64" fill="none" xmlns="http://www.w3.org/2000/svg">
<path d="M28.4 1.3H36" stroke="#AFAFAF" stroke-width="1.2" stroke-linecap="round"/>
<path d="M20.4 42.8L33 43" stroke="#AFAFAF" stroke-width="1.2" stroke-linecap="round"/>
<path d="M32 21L43.6 21.2" stroke="#AFAFAF" stroke-width="1.2" stroke-linecap="round"/>
<path d="M42 37L36 48" stroke="#AFAFAF" stroke-width="1.2" stroke-linecap="round"/>
<path d="M41.4 26.6L48.4 35.9" stroke="#AFAFAF" stroke-width="1.2" stroke-linecap="round"/>
<path d="M22 37L17 27" stroke="#AFAFAF" stroke-width="1.2" stroke-linecap="round"/>
<path d="M22 27L28 17" stroke="#AFAFAF" stroke-width="1.2" stroke-linecap="round"/>
<path d="M28 1.3H36L40.6 8.9L36.6 16.2H28.4L23.4 8.9L28 1.3Z" stroke="#AFAFAF" stroke-width="2"/>
<path d="M8 12.8H16L20.6 20.5L16.6 27.4H8.4L3.4 20.5L8 12.8Z" stroke="#AFAFAF" stroke-width="2"/>
<path d="M48 12.8H56L60.6 20.5L56.6 27.8H48.4L43.6 20.5L48 12.8Z" stroke="#AFAFAF" stroke-width="2"/>
<path d="M8 35.9H16L20.4 42.8L16.6 50.8H8.4L3.4 43.9L8 35.9Z" stroke="#AFAFAF" stroke-width="2"/>
<path d="M48 35.9H56L60.6 43.5L56.6 50.8H48.4L43.4 43.5L48 35.9Z" stroke="#AFAFAF" stroke-width="2"/>
<path d="M28 47.4H35.6L40.6 54.7L36.6 62.4H28L23.4 55.1L28 47.4Z" stroke="#AFAFAF" stroke-width="2"/>
</svg>
