<svg width="59" height="60" viewBox="0 0 59 60" fill="none" xmlns="http://www.w3.org/2000/svg">
<g clip-path="url(#clip0_0_1)">
<g filter="url(#filter0_d_0_1)">
<path d="M50 0H8C3.58172 0 0 3.58172 0 8V50C0 54.4183 3.58172 58 8 58H50C54.4183 58 58 54.4183 58 50V8C58 3.58172 54.4183 0 50 0Z" fill="white"/>
<path d="M50 0.25H8C3.71979 0.25 0.25 3.71979 0.25 8V50C0.25 54.2802 3.71979 57.75 8 57.75H50C54.2802 57.75 57.75 54.2802 57.75 50V8C57.75 3.71979 54.2802 0.25 50 0.25Z" stroke="black" stroke-width="0.5"/>
</g>
<path d="M40 20H18C16.8954 20 16 20.8954 16 22V36C16 37.1046 16.8954 38 18 38H40C41.1046 38 42 37.1046 42 36V22C42 20.8954 41.1046 20 40 20Z" stroke="black" stroke-width="2.5"/>
<path d="M16 21L29 31L42 21" stroke="black" stroke-width="2.5" stroke-linecap="round" stroke-linejoin="round"/>
</g>
<defs>
<filter id="filter0_d_0_1" x="0" y="0" width="59" height="60" filterUnits="userSpaceOnUse" color-interpolation-filters="sRGB">
<feFlood flood-opacity="0" result="BackgroundImageFix"/>
<feColorMatrix in="SourceAlpha" type="matrix" values="0 0 0 0 0 0 0 0 0 0 0 0 0 0 0 0 0 0 127 0" result="hardAlpha"/>
<feOffset dx="1" dy="2"/>
<feComposite in2="hardAlpha" operator="out"/>
<feColorMatrix type="matrix" values="0 0 0 0 0.984314 0 0 0 0 0.580392 0 0 0 0 0.305882 0 0 0 1 0"/>
<feBlend mode="normal" in2="BackgroundImageFix" result="effect1_dropShadow_0_1"/>
<feBlend mode="normal" in="SourceGraphic" in2="effect1_dropShadow_0_1" result="shape"/>
</filter>
<clipPath id="clip0_0_1">
<rect width="59" height="60" fill="white"/>
</clipPath>
</defs>
</svg>
