<svg width="59" height="60" viewBox="0 0 59 60" fill="none" xmlns="http://www.w3.org/2000/svg">
<g clip-path="url(#clip0_0_1)">
<g filter="url(#filter0_d_0_1)">
<path d="M50 0H8C3.58172 0 0 3.58172 0 8V50C0 54.4183 3.58172 58 8 58H50C54.4183 58 58 54.4183 58 50V8C58 3.58172 54.4183 0 50 0Z" fill="white"/>
<path d="M50 0.25H8C3.71979 0.25 0.25 3.71979 0.25 8V50C0.25 54.2802 3.71979 57.75 8 57.75H50C54.2802 57.75 57.75 54.2802 57.75 50V8C57.75 3.71979 54.2802 0.25 50 0.25Z" stroke="black" stroke-width="0.5"/>
<path d="M29 12C38.3882 12 46 19.7309 46 29.2662C46 37.3568 40.5147 44.1266 33.1197 46C33.199 45.7669 33.25 45.4964 33.25 45.1612V42.2101C33.9399 42.2101 35.0959 42.2101 35.3863 42.2101C36.5494 42.2101 37.5836 41.7022 38.0851 40.7583C38.6418 39.7094 38.7382 38.105 40.118 37.1237C40.5274 36.7971 40.2158 36.4245 39.744 36.4748C38.8728 36.7252 38.1503 37.3324 37.4703 38.2331C36.7931 39.1353 36.4743 39.3396 35.2093 39.3396C34.5958 39.3396 33.6778 39.3036 32.8137 39.1655C32.349 37.9669 31.5458 36.8633 30.564 36.3424C36.225 35.7511 38.9266 32.8906 38.9266 29.0072C38.9266 27.3353 38.2253 25.718 37.0339 24.3554C37.4249 23.0029 37.9165 20.2446 36.8837 19.1942C34.3366 19.1942 32.7967 20.8719 32.4269 21.3252C31.1576 20.8835 29.7636 20.6331 28.2987 20.6331C26.8311 20.6331 25.4314 20.8835 24.1593 21.3281C23.7938 20.8777 22.2524 19.1942 19.6996 19.1942C18.6626 20.246 19.1598 23.0158 19.5551 24.3655C18.3708 25.7252 17.6737 27.3381 17.6737 29.0072C17.6737 32.8878 20.3711 35.7468 26.0236 36.341C24.4681 37.1655 23.3333 39.482 23.3333 41.2273V45.1612C23.3333 45.3108 23.3659 45.4187 23.3829 45.5468C16.7586 43.1885 12 36.8 12 29.2662C12 19.7309 19.6118 12 29 12Z" fill="black"/>
</g>
</g>
<defs>
<filter id="filter0_d_0_1" x="0" y="0" width="59" height="60" filterUnits="userSpaceOnUse" color-interpolation-filters="sRGB">
<feFlood flood-opacity="0" result="BackgroundImageFix"/>
<feColorMatrix in="SourceAlpha" type="matrix" values="0 0 0 0 0 0 0 0 0 0 0 0 0 0 0 0 0 0 127 0" result="hardAlpha"/>
<feOffset dx="1" dy="2"/>
<feComposite in2="hardAlpha" operator="out"/>
<feColorMatrix type="matrix" values="0 0 0 0 0.984314 0 0 0 0 0.580392 0 0 0 0 0.305882 0 0 0 1 0"/>
<feBlend mode="normal" in2="BackgroundImageFix" result="effect1_dropShadow_0_1"/>
<feBlend mode="normal" in="SourceGraphic" in2="effect1_dropShadow_0_1" result="shape"/>
</filter>
<clipPath id="clip0_0_1">
<rect width="59" height="60" fill="white"/>
</clipPath>
</defs>
</svg>
