<svg width="59" height="60" viewBox="0 0 59 60" fill="none" xmlns="http://www.w3.org/2000/svg">
<g clip-path="url(#clip0_0_1)">
<g filter="url(#filter0_d_0_1)">
<path d="M50 0H8C3.58172 0 0 3.58172 0 8V50C0 54.4183 3.58172 58 8 58H50C54.4183 58 58 54.4183 58 50V8C58 3.58172 54.4183 0 50 0Z" fill="white"/>
<path d="M50 0.25H8C3.71979 0.25 0.25 3.71979 0.25 8V50C0.25 54.2802 3.71979 57.75 8 57.75H50C54.2802 57.75 57.75 54.2802 57.75 50V8C57.75 3.71979 54.2802 0.25 50 0.25Z" stroke="black" stroke-width="0.5"/>
</g>
<path d="M41 16H19C17.8954 16 17 16.8954 17 18V40C17 41.1046 17.8954 42 19 42H41C42.1046 42 43 41.1046 43 40V18C43 16.8954 42.1046 16 41 16Z" fill="black" stroke="black" stroke-width="2.5"/>
<path d="M25.5814 35.9997H22.2643V26.6528H25.5814V35.9997ZM23.9211 25.3778C22.8604 25.3778 22 24.6091 22 23.6809C22 23.2351 22.2024 22.8076 22.5627 22.4923C22.9229 22.1771 23.4116 22 23.9211 22C24.4306 22 24.9192 22.1771 25.2795 22.4923C25.6397 22.8076 25.8421 23.2351 25.8421 23.6809C25.8421 24.6091 24.9814 25.3778 23.9211 25.3778ZM37.9964 35.9997H34.6864V31.4497C34.6864 30.3653 34.6614 28.9747 32.9618 28.9747C31.2371 28.9747 30.9729 30.1528 30.9729 31.3716V35.9997H27.6593V26.6528H30.8407V27.9278H30.8871C31.33 27.1934 32.4118 26.4184 34.0257 26.4184C37.3829 26.4184 38 28.3528 38 30.8653V35.9997H37.9964Z" fill="white"/>
</g>
<defs>
<filter id="filter0_d_0_1" x="0" y="0" width="59" height="60" filterUnits="userSpaceOnUse" color-interpolation-filters="sRGB">
<feFlood flood-opacity="0" result="BackgroundImageFix"/>
<feColorMatrix in="SourceAlpha" type="matrix" values="0 0 0 0 0 0 0 0 0 0 0 0 0 0 0 0 0 0 127 0" result="hardAlpha"/>
<feOffset dx="1" dy="2"/>
<feComposite in2="hardAlpha" operator="out"/>
<feColorMatrix type="matrix" values="0 0 0 0 0.984314 0 0 0 0 0.580392 0 0 0 0 0.305882 0 0 0 1 0"/>
<feBlend mode="normal" in2="BackgroundImageFix" result="effect1_dropShadow_0_1"/>
<feBlend mode="normal" in="SourceGraphic" in2="effect1_dropShadow_0_1" result="shape"/>
</filter>
<clipPath id="clip0_0_1">
<rect width="59" height="60" fill="white"/>
</clipPath>
</defs>
</svg>
