<svg width="59" height="60" viewBox="0 0 59 60" fill="none" xmlns="http://www.w3.org/2000/svg">
<g clip-path="url(#clip0_0_1)">
<g filter="url(#filter0_d_0_1)">
<path d="M50 0H8C3.58172 0 0 3.58172 0 8V50C0 54.4183 3.58172 58 8 58H50C54.4183 58 58 54.4183 58 50V8C58 3.58172 54.4183 0 50 0Z" fill="white"/>
<path d="M50 0.25H8C3.71979 0.25 0.25 3.71979 0.25 8V50C0.25 54.2802 3.71979 57.75 8 57.75H50C54.2802 57.75 57.75 54.2802 57.75 50V8C57.75 3.71979 54.2802 0.25 50 0.25Z" stroke="black" stroke-width="0.5"/>
<mask id="mask0_0_1" style="mask-type:luminance" maskUnits="userSpaceOnUse" x="13" y="13" width="32" height="32">
<path d="M45 13H13V45H45V13Z" fill="white"/>
</mask>
<g mask="url(#mask0_0_1)">
<path d="M31.979 26.55L43.6355 13H40.873L30.752 24.765L22.668 13H13.344L25.5685 30.791L13.344 45H16.1065L26.795 32.5758L35.332 45H44.656L31.979 26.55ZM28.1955 30.9475L26.9567 29.176L17.1017 15.0795H21.3447L29.2975 26.456L30.536 28.2275L40.8742 43.015H36.6317L28.1955 30.9475Z" fill="black"/>
</g>
</g>
</g>
<defs>
<filter id="filter0_d_0_1" x="0" y="0" width="59" height="60" filterUnits="userSpaceOnUse" color-interpolation-filters="sRGB">
<feFlood flood-opacity="0" result="BackgroundImageFix"/>
<feColorMatrix in="SourceAlpha" type="matrix" values="0 0 0 0 0 0 0 0 0 0 0 0 0 0 0 0 0 0 127 0" result="hardAlpha"/>
<feOffset dx="1" dy="2"/>
<feComposite in2="hardAlpha" operator="out"/>
<feColorMatrix type="matrix" values="0 0 0 0 0.984314 0 0 0 0 0.580392 0 0 0 0 0.305882 0 0 0 1 0"/>
<feBlend mode="normal" in2="BackgroundImageFix" result="effect1_dropShadow_0_1"/>
<feBlend mode="normal" in="SourceGraphic" in2="effect1_dropShadow_0_1" result="shape"/>
</filter>
<clipPath id="clip0_0_1">
<rect width="59" height="60" fill="white"/>
</clipPath>
</defs>
</svg>
