<svg class="nc-icon outline" xmlns="http://www.w3.org/2000/svg" xmlns:xlink="http://www.w3.org/1999/xlink" x="0px" y="0px" width="64px" height="64px" viewBox="0 0 64 64"><g transform="translate(0, 0)"> <path data-cap="butt" data-color="color-2" fill="none" stroke="#afafaf" stroke-width="2" stroke-miterlimit="10" d="M23.99574,28.16605 C20.46621,26.62196,18,23.09899,18,19c0-5.52285,4.47715-10,10-10s10,4.47715,10,10c0,4.47754-2.94276,8.26776-6.99972,9.54211" stroke-linejoin="round" stroke-linecap="round"></path> <path data-cap="butt" data-color="color-2" fill="none" stroke="#afafaf" stroke-width="2" stroke-miterlimit="10" d="M23.99961,35.52665 C16.54108,33.7277,11,27.01094,11,19c0-9.38884,7.61116-17,17-17s17,7.61116,17,17c0,5.68837-2.78219,10.70188-7.07254,13.78783" stroke-linejoin="round" stroke-linecap="round"></path> <line fill="none" stroke="#afafaf" stroke-width="2" stroke-linecap="round" stroke-miterlimit="10" x1="24" y1="37.99999" x2="24" y2="43.99999" stroke-linejoin="round"></line> <path fill="none" stroke="#afafaf" stroke-width="2" stroke-linecap="round" stroke-miterlimit="10" d="M31,36v-2.5 c0-1.93299,1.567-3.5,3.5-3.5H34.5c1.93299,0,3.5,1.567,3.5,3.5V36" stroke-linejoin="round"></path> <path fill="none" stroke="#afafaf" stroke-width="2" stroke-linecap="round" stroke-miterlimit="10" d="M38,37.00021V35.5 c0-1.93299,1.567-3.5,3.5-3.5H41.5c1.93299,0,3.5,1.567,3.5,3.5V38" stroke-linejoin="round"></path> <path fill="none" stroke="#afafaf" stroke-width="2" stroke-linecap="round" stroke-miterlimit="10" d="M45,37.5 c0-1.93299,1.567-3.5,3.5-3.5h0c1.84727,0,3.26627,1.63612,3.00502,3.46482L48,62H24c0-3.83333-7-9.33333-7-14v-6.99999 c0-1.65686,1.34315-3,3-3.00001l4-0.00001V19.5c0-1.933,1.56701-3.5,3.5-3.5h0.00001c1.93299,0,3.49999,1.567,3.49999,3.5V35" stroke-linejoin="round"></path> </g></svg>